  <svg xmlns="http://www.w3.org/2000/svg" width="19" height="12" viewBox="0 0 19 12" fill="none" class="icon-image" alt="Button"><path fill-rule="evenodd" clip-rule="evenodd" d="M1.39932 0C0.627959 0 0 0.635635 0 1.41312V10.5896C0 11.3671 0.627959 12 1.39932 12H17.598C18.3694 12 19 11.3644 19 10.5896V1.41312C19 0.635635 18.3694 0 17.598 0H1.39932ZM17.2578 4.1074V2.23909C17.2578 2.11789 17.1625 2.02182 17.0422 2.02182H12.8977C12.7801 2.02182 12.6821 2.11968 12.6821 2.23909V4.1074C12.6821 4.22591 12.7792 4.32467 12.8977 4.32467H17.0422C17.1571 4.32467 17.2578 4.2295 17.2578 4.1074ZM14.2027 9.7708C14.0825 9.7708 13.9845 9.67294 13.9845 9.55353V9.1199C13.9845 9.00139 14.0816 8.90263 14.2027 8.90263H17.0396C17.1572 8.90263 17.2551 9.00049 17.2551 9.1199V9.55353C17.2551 9.67204 17.158 9.7708 17.0396 9.7708H14.2027ZM10.2426 9.7708C10.125 9.7708 10.027 9.67294 10.027 9.55353V9.12169C10.027 9.00049 10.1241 8.90442 10.2426 8.90442H13.0822C13.1998 8.90442 13.2978 9.00228 13.2978 9.12169V9.55353C13.2978 9.67204 13.2007 9.7708 13.0822 9.7708H10.2426ZM6.28522 9.7708C6.16765 9.7708 6.06967 9.67294 6.06967 9.55353V9.12169C6.06967 9.00049 6.16675 8.90442 6.28522 8.90442H9.12482C9.24239 8.90442 9.34037 9.00228 9.34037 9.12169V9.55353C9.34037 9.67204 9.24328 9.7708 9.12482 9.7708H6.28522ZM2.32784 9.7708C2.21027 9.7708 2.11229 9.67294 2.11229 9.55353V9.12169C2.11229 9.00049 2.20938 8.90442 2.32784 8.90442H5.16744C5.28501 8.90442 5.38299 9.00228 5.38299 9.12169V9.55353C5.38299 9.67204 5.28591 9.7708 5.16744 9.7708H2.32784Z" fill="#ff0073"></path>
          </svg>