 <svg width="24" height="19" viewBox="0 0 24 19" fill="none" xmlns="http://www.w3.org/2000/svg">
            <path
              d="M18.375 18.4688H5.62406C2.52295 18.4688 0 15.9458 0 12.8447V5.625C0 2.52338 2.52338 0 5.625 0H18.375C21.4766 0 24 2.52338 24 5.625V12.8438C24 15.9454 21.4767 18.4688 18.375 18.4688ZM5.625 1.875C3.55725 1.875 1.875 3.55725 1.875 5.625V12.8447C1.875 14.9119 3.55683 16.5938 5.62406 16.5938H18.375C20.4427 16.5938 22.125 14.9115 22.125 12.8438V5.625C22.125 3.55725 20.4427 1.875 18.375 1.875H5.625Z"
              fill="#333333"
            ></path>
            <path
              d="M13.1006 6.00001C13.7085 6.00001 14.2013 6.48069 14.2013 7.07363C14.2013 7.66657 13.7085 8.14725 13.1006 8.14725C12.4928 8.14725 12 7.66657 12 7.07363C12 6.48069 12.4928 6.00001 13.1006 6.00001ZM16.7987 11.9264C16.7987 12.5193 17.2915 13 17.8994 13C18.5072 13 19 12.5193 19 11.9264C19 11.3334 18.5072 10.8528 17.8994 10.8528C17.2915 10.8528 16.7987 11.3334 16.7987 11.9264ZM13.5599 12.7357L18.7549 7.45352C19.0915 7.11121 19.08 6.56748 18.7291 6.23913C18.3781 5.91073 17.8208 5.92194 17.4841 6.26434L12.2892 11.5465C11.9525 11.8888 11.9641 12.4326 12.315 12.7609C12.4857 12.9207 12.7052 13 12.9244 13C13.1559 13 13.387 12.9115 13.5599 12.7357Z"
              fill="#FF0072"
            ></path>
            <path
              d="M8.875 1.04977V2.27449C8.875 2.85428 8.45528 3.32426 7.9375 3.32426C7.41972 3.32426 7 2.85428 7 2.27449V1.04977C7 0.46998 7.41972 0 7.9375 0C8.45528 0 8.875 0.46998 8.875 1.04977Z"
              fill="#333333"
            ></path>
            <path
              d="M8.875 5.87405V7.09877C8.875 7.67856 8.45528 8.14854 7.9375 8.14854C7.41972 8.14854 7 7.67856 7 7.09877V5.87405C7 5.29426 7.41972 4.82428 7.9375 4.82428C8.45528 4.82428 8.875 5.29426 8.875 5.87405Z"
              fill="#333333"
            ></path>
            <path
              d="M8.875 10.6983V11.923C8.875 12.5028 8.45528 12.9728 7.9375 12.9728C7.41972 12.9728 7 12.5028 7 11.923V10.6983C7 10.1185 7.41972 9.6485 7.9375 9.6485C8.45528 9.6485 8.875 10.1185 8.875 10.6983Z"
              fill="#333333"
            ></path>
            <path
              d="M8.875 15.5225V16.7473C8.875 17.3271 8.45528 17.797 7.9375 17.797C7.41972 17.797 7 17.3271 7 16.7473V15.5225C7 14.9428 7.41972 14.4728 7.9375 14.4728C8.45528 14.4728 8.875 14.9428 8.875 15.5225Z"
              fill="#333333"
            ></path>
          </svg>