<svg width="13" height="13" viewBox="0 0 13 13" fill="none" xmlns="http://www.w3.org/2000/svg">
<path fill-rule="evenodd" clip-rule="evenodd" d="M5.41427 0.46428C5.8048 0.0737557 6.43796 0.0737556 6.82849 0.46428C7.21901 0.854804 7.21901 1.48797 6.82849 1.87849L3.70713 4.99985H12.0001C12.5523 4.99985 13.0001 5.44756 13.0001 5.99985C13.0001 6.55213 12.5523 6.99985 12.0001 6.99985H3.41431L6.82849 10.414C7.21901 10.8046 7.21901 11.4377 6.82849 11.8282C6.43796 12.2188 5.8048 12.2188 5.41427 11.8282L0.464526 6.87849C0.262885 6.67685 0.165358 6.41052 0.171946 6.14631C0.165333 5.88206 0.262859 5.61569 0.464524 5.41403L5.41427 0.46428Z" fill="#333333"/>
</svg>
