 <svg width="24" height="19" viewBox="0 0 24 19" fill="none" xmlns="http://www.w3.org/2000/svg">
            <path
              d="M22.8255 8.48936H18.7197C19.2236 8.15246 19.5268 7.58697 19.5286 6.98099C19.5286 5.97427 18.6986 5.15525 17.6785 5.15525C17.0548 5.15465 16.4725 5.46662 16.1277 5.98624V1.35745C16.1277 1.15997 15.9677 1 15.7702 1C15.5727 1 15.4128 1.15997 15.4128 1.35745V5.98644C15.255 5.74688 15.0434 5.54761 14.7948 5.40439C14.5112 5.24102 14.1894 5.15505 13.8621 5.15525C12.8418 5.15525 12.012 5.97427 12.012 6.98099C12.0136 7.58697 12.3168 8.15246 12.8207 8.48936H1.35745C1.15997 8.48936 1 8.64934 1 8.84681C1 9.04428 1.15997 9.20426 1.35745 9.20426H14.9073L13.2196 10.892C13.08 11.0316 13.08 11.2578 13.2196 11.3974C13.3592 11.537 13.5854 11.537 13.7251 11.3974L15.4128 9.70971V17.3106C15.4128 17.5081 15.5727 17.6681 15.7702 17.6681C15.9677 17.6681 16.1277 17.5081 16.1277 17.3106V9.70971L18.4026 11.9846C18.5422 12.1243 18.7684 12.1243 18.908 11.9846C19.0477 11.845 19.0477 11.6188 18.908 11.4792L16.6331 9.20426H22.8255C23.023 9.20426 23.183 9.04428 23.183 8.84681C23.183 8.64934 23.023 8.48936 22.8255 8.48936ZM16.5633 6.77394C16.682 6.20864 17.2056 5.82208 17.7807 5.87513C18.3559 5.92799 18.7999 6.40353 18.8137 6.98099C18.8087 7.51875 18.4217 7.97693 17.8922 8.07188L16.2519 8.37966L16.5633 6.77394ZM13.8619 5.87015C14.064 5.86995 14.2624 5.92281 14.4378 6.02334C14.7178 6.18331 14.9147 6.45718 14.9771 6.77354L15.2887 8.37926L13.6483 8.07148C13.0756 7.97334 12.6757 7.44974 12.7319 6.87128C12.788 6.29282 13.2809 5.85638 13.8619 5.87015Z"
              fill="#FF0072"
              stroke="#FF0072"
              stroke-width="0.7"
            ></path>
            <path
              d="M18.375 18.4688H5.62406C2.52295 18.4688 0 15.9458 0 12.8447V5.625C0 2.52338 2.52338 0 5.625 0H18.375C21.4766 0 24 2.52338 24 5.625V12.8438C24 15.9454 21.4767 18.4688 18.375 18.4688ZM5.625 1.875C3.55725 1.875 1.875 3.55725 1.875 5.625V12.8447C1.875 14.9119 3.55683 16.5938 5.62406 16.5938H18.375C20.4427 16.5938 22.125 14.9115 22.125 12.8438V5.625C22.125 3.55725 20.4427 1.875 18.375 1.875H5.625Z"
              fill="#333333"
            ></path>
          </svg>