 <svg width="24" height="24" viewBox="0 0 24 24" fill="none" xmlns="http://www.w3.org/2000/svg">
            <path
              d="M23.9997 15.4081C24.0247 12.6371 22.7095 9.99555 20.4808 8.34104C20.0651 8.03247 19.4778 8.11923 19.1692 8.53497C18.8606 8.9507 18.9475 9.53791 19.3631 9.84653C21.1133 11.1458 22.1456 13.22 22.1248 15.3951C22.1247 15.3981 22.1247 15.4011 22.1247 15.4042L22.125 21.296C20.9448 20.8057 19.588 20.8295 18.401 21.4244C17.4732 21.8893 16.4524 22.125 15.3657 22.125C13.1789 22.125 11.1796 21.1349 9.89224 19.4084C9.58282 18.9933 8.99538 18.9077 8.5803 19.2172C8.16522 19.5267 8.07958 20.1141 8.38914 20.5292C10.0339 22.7352 12.5826 24.0001 15.3666 24C16.7466 24 18.0503 23.6974 19.241 23.1007C20.2462 22.5968 21.4641 22.8008 22.2714 23.6082C22.2813 23.6181 22.6263 24 23.0628 24C23.7621 24 24.0001 23.4341 24.0001 23.0625L23.9997 15.4081Z"
              fill="#333333"
            ></path>
            <path
              d="M8.64112 17.3438C10.9484 17.3438 13.1215 16.4555 14.7605 14.8424C16.404 13.2248 17.3212 11.0636 17.3434 8.75686C17.3658 6.41498 16.4755 4.21378 14.8363 2.55867C13.202 0.908672 11.0128 0 8.67188 0C6.34767 0 4.1617 0.914719 2.51672 2.57564C0.872812 4.23539 -0.0207187 6.42881 0.000375 8.75222L0 16.4062C0 16.7778 0.219422 17.1143 0.559406 17.2641C0.680906 17.3177 0.809578 17.3438 0.937359 17.3438C1.16709 17.3438 1.39383 17.2593 1.57008 17.0982C1.57008 17.0982 2.44116 16.1705 3.59981 16.1705C3.99436 16.1705 4.39097 16.2599 4.75908 16.4443C5.94994 17.0412 7.25344 17.3438 8.63259 17.3438H8.64112ZM3.6008 14.295C3.01069 14.295 2.42377 14.4118 1.87514 14.6397C1.87514 14.6397 1.87542 8.74181 1.87538 8.73881C1.85789 6.91786 2.55877 5.19764 3.84895 3.89508C5.13909 2.59242 6.85195 1.875 8.67188 1.875C10.5086 1.875 12.2247 2.58638 13.504 3.87811C14.7885 5.17495 15.4861 6.90117 15.4684 8.73886C15.4328 12.4506 12.3639 15.469 8.63344 15.4688C7.54777 15.4688 6.52678 15.233 5.59912 14.7681C4.96392 14.4497 4.28016 14.295 3.6008 14.295Z"
              fill="#333333"
            ></path>
            <path
              d="M13.5 8.71875C13.5 9.36595 12.9753 9.89062 12.3281 9.89062C11.6809 9.89062 11.1562 9.36595 11.1562 8.71875C11.1562 8.07155 11.6809 7.54688 12.3281 7.54688C12.9754 7.54688 13.5 8.07155 13.5 8.71875ZM9.79688 8.71875C9.79688 9.36595 9.2722 9.89062 8.625 9.89062C7.9778 9.89062 7.45312 9.36595 7.45312 8.71875C7.45312 8.07155 7.9778 7.54688 8.625 7.54688C9.27225 7.54688 9.79688 8.07155 9.79688 8.71875ZM6.09375 8.71875C6.09375 9.36595 5.56908 9.89062 4.92188 9.89062C4.27467 9.89062 3.75 9.36595 3.75 8.71875C3.75 8.07155 4.27467 7.54688 4.92188 7.54688C5.56912 7.54688 6.09375 8.07155 6.09375 8.71875Z"
              fill="#FF0072"
            ></path>
          </svg>