 <svg width="22" height="22" viewBox="0 0 22 22" fill="none" xmlns="http://www.w3.org/2000/svg">
            <path
              d="M0.859207 22C0.748476 22 0.636844 21.9786 0.530496 21.9346C0.209391 21.8015 4.19172e-06 21.4882 4.19172e-06 21.1406L0.000476848 11.1038C-0.0266794 8.15624 1.10688 5.37324 3.19262 3.26739C5.27949 1.16037 8.05217 0 11 0C13.9697 0 16.7467 1.15246 18.8194 3.24513C20.8986 5.34441 22.028 8.13682 21.9995 11.1079C21.9714 14.0338 20.8079 16.775 18.7234 18.8267C16.6442 20.8731 13.887 22 10.9596 22C10.9561 22 10.9525 22 10.949 22C9.21727 22 7.56409 21.6116 6.03556 20.8456C4.57488 20.1136 2.80651 20.4088 1.63514 21.5802L1.46704 21.7483C1.30269 21.9127 1.08282 22 0.859207 22ZM4.35132 18.728C5.18586 18.728 6.02542 18.918 6.80565 19.309C8.09286 19.9542 9.4872 20.2812 10.9498 20.2812H10.9587C16.0514 20.2816 20.2322 16.1598 20.2808 11.0914C20.3049 8.58249 19.3522 6.22553 17.5982 4.45461C15.8508 2.69036 13.5076 1.71875 11 1.71875C8.51438 1.71875 6.17538 2.69827 4.41375 4.47683C2.65225 6.25535 1.69529 8.60441 1.71918 11.0914C1.71918 11.0941 1.71923 11.0969 1.71923 11.0996L1.71884 19.3955C2.53318 18.9552 3.43913 18.728 4.35132 18.728Z"
              fill="#333333"
            ></path>
            <path
              d="M12.6916 7.99594L12.6917 7.99592C12.6014 7.76969 12.4405 7.57907 12.2005 7.42465L12.1972 7.42252L12.1972 7.42248C11.9681 7.26634 11.64 7.17985 11.1972 7.17985C10.758 7.17985 10.3965 7.26991 10.1054 7.442C9.81747 7.61788 9.59186 7.84793 9.42649 8.13331C9.33952 8.29229 9.27267 8.45638 9.22565 8.62573C9.14175 8.92791 8.88027 9.19478 8.53301 9.19478C8.16482 9.19478 7.83999 8.87929 7.91785 8.48698C7.98959 8.12555 8.1141 7.78458 8.29132 7.46463L8.29178 7.4638L8.29178 7.46381C8.56697 6.97431 8.94151 6.58245 9.41409 6.29032L9.41526 6.2896L9.41526 6.2896C9.90217 5.99476 10.4698 5.85 11.1127 5.85C11.8067 5.85 12.386 5.98763 12.8393 6.27533C13.2933 6.54762 13.6288 6.9069 13.8396 7.35325C14.0463 7.78113 14.15 8.23107 14.15 8.70149C14.15 9.18512 14.0676 9.60245 13.895 9.94706C13.7382 10.2688 13.5372 10.5597 13.2922 10.8194C13.0654 11.0597 12.8339 11.295 12.5977 11.5253C12.3745 11.7429 12.1866 11.9938 12.0341 12.2789C11.9576 12.4261 11.9014 12.594 11.8668 12.7839C11.8062 13.1169 11.535 13.4187 11.162 13.4187C10.8025 13.4187 10.4794 13.1216 10.5323 12.7356C10.5713 12.4517 10.6437 12.1949 10.7513 11.9666C10.9167 11.606 11.1221 11.2941 11.3688 11.0325C11.6044 10.7728 11.8355 10.5279 12.0621 10.2977M12.6916 7.99594L12.169 10.403M12.6916 7.99594L12.6935 8.00019C12.799 8.24254 12.85 8.47594 12.85 8.70149C12.85 9.04702 12.7754 9.33761 12.6322 9.57903M12.6916 7.99594L12.7606 9.65672M12.0621 10.2977L12.169 10.403M12.0621 10.2977C12.0621 10.2978 12.0621 10.2978 12.062 10.2978L12.169 10.403M12.0621 10.2977C12.2894 10.0665 12.4792 9.82687 12.6322 9.57903M12.169 10.403C12.4038 10.1642 12.6009 9.91542 12.7606 9.65672M12.6322 9.57903C12.632 9.57939 12.6318 9.57974 12.6316 9.5801L12.7606 9.65672M12.6322 9.57903C12.6325 9.57867 12.6327 9.57831 12.6329 9.57795L12.7606 9.65672M10.3289 16.3169C10.3289 16.777 10.7019 17.15 11.162 17.15C11.6221 17.15 11.9951 16.777 11.9951 16.3169V16.1607C11.9951 15.7006 11.6221 15.3276 11.162 15.3276C10.7019 15.3276 10.3289 15.7006 10.3289 16.1607V16.3169Z"
              fill="#FF0072"
              stroke="#FF0072"
              stroke-width="0.3"
            ></path>
          </svg>