<svg width="137" height="30" viewBox="0 0 137 30" fill="none" xmlns="http://www.w3.org/2000/svg">
<path fill-rule="evenodd" clip-rule="evenodd" d="M9.66667 19.3333V27H2V19.3333H9.66667ZM17.3333 11.6667V19.3333H9.66667V11.6667H17.3333ZM25 4V11.6667H17.3333V4H25Z" fill="#FF0077"/>
<path d="M40.9997 21.7692V15.8187L43.9338 20.6319H45.3762L48.3267 15.6538L48.3595 21.7692H51.3428L51.31 10.2308H48.6382L44.7042 16.8901L40.6718 10.2308H38V21.7692H40.9997ZM59.6151 21.7692V10.2308H56.3695V21.7692H59.6151ZM67.1825 21.7692L69.5265 18.1923L71.9033 21.7692H75.6406L71.3788 15.8022L75.3783 10.2308H71.8705L69.6085 13.5604L67.3137 10.2308H63.6583L67.6579 15.9341L63.478 21.7692H67.1825ZM84.6669 21.7692V12.8187H88.1747V10.2308H77.8972V12.8187H81.4214V21.7692H84.6669ZM95.3652 21.7692V10.2308H92.1196V21.7692H95.3652ZM109.129 21.7692V19.1813H103.654V10.2308H100.408V21.7692H109.129ZM122.351 21.7692V19.2473H116.352V17.1374H121.45V14.6978H116.352V12.7527H122.138V10.2308H113.139V21.7692H122.351ZM130.919 22C132.011 22 132.94 21.8324 133.705 21.4973C134.47 21.1621 135.044 20.7143 135.426 20.1538C135.809 19.5934 136 18.967 136 18.2747C136 17.4725 135.79 16.8379 135.369 16.3709C134.948 15.9038 134.451 15.5632 133.877 15.3489C133.304 15.1346 132.58 14.9341 131.705 14.7473C130.93 14.5824 130.367 14.4231 130.017 14.2692C129.667 14.1154 129.493 13.8846 129.493 13.5769C129.493 13.2692 129.64 13.0192 129.935 12.8269C130.23 12.6346 130.7 12.5385 131.345 12.5385C132.372 12.5385 133.432 12.8352 134.525 13.4286L135.525 11.0055C134.967 10.6758 134.323 10.4258 133.59 10.2555C132.858 10.0852 132.115 10 131.361 10C130.257 10 129.326 10.1648 128.566 10.4945C127.807 10.8242 127.236 11.272 126.853 11.8379C126.471 12.4038 126.28 13.0385 126.28 13.7418C126.28 14.544 126.487 15.1813 126.903 15.6538C127.318 16.1264 127.815 16.4698 128.394 16.6841C128.973 16.8984 129.695 17.0989 130.558 17.2857C131.345 17.4615 131.916 17.6291 132.271 17.7885C132.626 17.9478 132.804 18.1923 132.804 18.522C132.804 19.1484 132.181 19.4615 130.935 19.4615C130.279 19.4615 129.613 19.3571 128.935 19.1484C128.258 18.9396 127.662 18.6648 127.149 18.3242L126.083 20.7308C126.629 21.1154 127.34 21.4231 128.214 21.6538C129.088 21.8846 129.99 22 130.919 22Z" fill="#FF0077"/>
</svg>