<svg width="15" height="13" viewBox="0 0 15 13" fill="none" xmlns="http://www.w3.org/2000/svg">
    <path fill-rule="evenodd" clip-rule="evenodd" d="M0.834717 1.91081C0.834717 1.3943 1.25343 0.975586 1.76994 0.975586H13.6161C14.1326 0.975586 14.5513 1.3943 14.5513 1.91081C14.5513 2.42732 14.1326 2.84603 13.6161 2.84603H1.76994C1.25343 2.84603 0.834717 2.42732 0.834717 1.91081ZM0.834717 6.8986C0.834717 6.38209 1.25343 5.96338 1.76994 5.96338H13.6161C14.1326 5.96338 14.5513 6.38209 14.5513 6.8986C14.5513 7.41511 14.1326 7.83382 13.6161 7.83382H1.76994C1.25343 7.83382 0.834717 7.41511 0.834717 6.8986ZM1.76994 10.9517C1.25343 10.9517 0.834717 11.3704 0.834717 11.8869C0.834717 12.4034 1.25343 12.8221 1.76994 12.8221H13.6161C14.1326 12.8221 14.5513 12.4034 14.5513 11.8869C14.5513 11.3704 14.1326 10.9517 13.6161 10.9517H1.76994Z" fill="#333333"/>
</svg>
